# xmcd CD database file
#
# Track frame offsets:
#	150
#	14412
#	28814
#	44012
#	64268
#	82877
#	103288
#	121373
#	137984
#	154905
#	173362
#	194529
#
# Disc length: 2814 seconds
#
# Revision: 0
# Processed by: cddbd v1.5.1PL2 Copyright (c) Steve Scherf et al.
# Submitted via: CDex 1.51
#
DISCID=a80afc0c
DTITLE=Scott Van Teeffelen - North
DYEAR=2005
DGENRE=Country
TTITLE0=Without Your Love
TTITLE1=You Wanna Believe
TTITLE2=Roll On Mighty River
TTITLE3=Hey There Lady
TTITLE4=Bart's Road
TTITLE5=Gold (For Clint and Shannon)
TTITLE6=Show Me Where To Go
TTITLE7=I Still Love You
TTITLE8=Like I Do
TTITLE9=My Only One
TTITLE10=Ride On
TTITLE11=That's Life
EXTD=YEAR: 2005
EXTT0=
EXTT1=
EXTT2=
EXTT3=
EXTT4=
EXTT5=
EXTT6=
EXTT7=
EXTT8=
EXTT9=
EXTT10=
EXTT11=
PLAYORDER=
